<svg width="32" height="32" viewBox="0 0 32 32" fill="none" xmlns="http://www.w3.org/2000/svg">
<path d="M16 6.66658C14.154 6.66658 12.3495 7.21398 10.8147 8.23954C9.27982 9.26509 8.08354 10.7228 7.37713 12.4282C6.67071 14.1336 6.48588 16.0103 6.84601 17.8208C7.20613 19.6312 8.09505 21.2943 9.40034 22.5996C10.7056 23.9049 12.3687 24.7938 14.1792 25.1539C15.9896 25.514 17.8663 25.3292 19.5717 24.6228C21.2772 23.9164 22.7348 22.7201 23.7604 21.1852C24.7859 19.6504 25.3333 17.8459 25.3333 15.9999C25.3333 13.5246 24.35 11.1506 22.5997 9.40025C20.8493 7.64992 18.4754 6.66658 16 6.66658V6.66658ZM16 22.6666C14.6815 22.6666 13.3925 22.2756 12.2962 21.543C11.1999 20.8105 10.3454 19.7693 9.8408 18.5511C9.33622 17.333 9.2042 15.9925 9.46143 14.6993C9.71867 13.4061 10.3536 12.2182 11.286 11.2859C12.2183 10.3535 13.4062 9.71858 14.6994 9.46135C15.9926 9.20411 17.3331 9.33614 18.5512 9.84072C19.7694 10.3453 20.8106 11.1998 21.5431 12.2961C22.2757 13.3924 22.6667 14.6814 22.6667 15.9999C22.6667 17.768 21.9643 19.4637 20.714 20.714C19.4638 21.9642 17.7681 22.6666 16 22.6666V22.6666ZM16 11.9999C15.2089 11.9999 14.4355 12.2345 13.7777 12.674C13.1199 13.1136 12.6072 13.7383 12.3045 14.4692C12.0017 15.2001 11.9225 16.0044 12.0769 16.7803C12.2312 17.5562 12.6122 18.2689 13.1716 18.8283C13.731 19.3878 14.4437 19.7687 15.2196 19.9231C15.9956 20.0774 16.7998 19.9982 17.5307 19.6954C18.2616 19.3927 18.8864 18.88 19.3259 18.2222C19.7654 17.5644 20 16.791 20 15.9999C20 14.9391 19.5786 13.9216 18.8284 13.1715C18.0783 12.4213 17.0609 11.9999 16 11.9999ZM16 17.3333C15.7363 17.3333 15.4785 17.2551 15.2592 17.1085C15.04 16.962 14.8691 16.7538 14.7682 16.5102C14.6672 16.2665 14.6408 15.9984 14.6923 15.7398C14.7437 15.4812 14.8707 15.2436 15.0572 15.0571C15.2437 14.8706 15.4812 14.7437 15.7399 14.6922C15.9985 14.6408 16.2666 14.6672 16.5102 14.7681C16.7539 14.869 16.9621 15.0399 17.1086 15.2592C17.2551 15.4784 17.3333 15.7362 17.3333 15.9999C17.3333 16.3535 17.1929 16.6927 16.9428 16.9427C16.6928 17.1928 16.3536 17.3333 16 17.3333ZM16 1.33325C13.0992 1.33325 10.2636 2.19344 7.85164 3.80503C5.43972 5.41662 3.55985 7.70724 2.44977 10.3872C1.33968 13.0672 1.04923 16.0162 1.61515 18.8612C2.18107 21.7063 3.57793 24.3196 5.6291 26.3708C7.68027 28.422 10.2936 29.8188 13.1387 30.3848C15.9837 30.9507 18.9327 30.6602 21.6127 29.5501C24.2927 28.4401 26.5833 26.5602 28.1949 24.1483C29.8065 21.7364 30.6667 18.9007 30.6667 15.9999C30.6667 12.1101 29.1214 8.37955 26.3709 5.62902C23.6204 2.87849 19.8898 1.33325 16 1.33325V1.33325ZM16 27.9999C13.6266 27.9999 11.3065 27.2961 9.33316 25.9776C7.35977 24.659 5.8217 22.7848 4.91345 20.5921C4.0052 18.3994 3.76756 15.9866 4.23058 13.6588C4.6936 11.3311 5.83649 9.19287 7.51472 7.51464C9.19295 5.83641 11.3311 4.69352 13.6589 4.23049C15.9867 3.76747 18.3995 4.00511 20.5922 4.91336C22.7849 5.82162 24.6591 7.35969 25.9776 9.33308C27.2962 11.3065 28 13.6265 28 15.9999C28 19.1825 26.7357 22.2348 24.4853 24.4852C22.2348 26.7356 19.1826 27.9999 16 27.9999V27.9999Z" fill="#EDCB50"/>
</svg>
