<svg width="24" height="24" viewBox="0 0 24 24" fill="none" xmlns="http://www.w3.org/2000/svg">
<path d="M15.71 8.28983C15.617 8.19611 15.5064 8.12171 15.3846 8.07094C15.2627 8.02017 15.132 7.99404 15 7.99404C14.868 7.99404 14.7373 8.02017 14.6154 8.07094C14.4936 8.12171 14.383 8.19611 14.29 8.28983L12 10.5898L9.71 8.28983C9.5217 8.10153 9.2663 7.99574 9 7.99574C8.7337 7.99574 8.4783 8.10153 8.29 8.28983C8.1017 8.47814 7.99591 8.73353 7.99591 8.99984C7.99591 9.26614 8.1017 9.52153 8.29 9.70984L10.59 11.9998L8.29 14.2898C8.19627 14.3828 8.12188 14.4934 8.07111 14.6153C8.02034 14.7371 7.9942 14.8678 7.9942 14.9998C7.9942 15.1318 8.02034 15.2626 8.07111 15.3844C8.12188 15.5063 8.19627 15.6169 8.29 15.7098C8.38296 15.8036 8.49356 15.878 8.61542 15.9287C8.73728 15.9795 8.86799 16.0056 9 16.0056C9.13201 16.0056 9.26272 15.9795 9.38458 15.9287C9.50644 15.878 9.61704 15.8036 9.71 15.7098L12 13.4098L14.29 15.7098C14.383 15.8036 14.4936 15.878 14.6154 15.9287C14.7373 15.9795 14.868 16.0056 15 16.0056C15.132 16.0056 15.2627 15.9795 15.3846 15.9287C15.5064 15.878 15.617 15.8036 15.71 15.7098C15.8037 15.6169 15.8781 15.5063 15.9289 15.3844C15.9797 15.2626 16.0058 15.1318 16.0058 14.9998C16.0058 14.8678 15.9797 14.7371 15.9289 14.6153C15.8781 14.4934 15.8037 14.3828 15.71 14.2898L13.41 11.9998L15.71 9.70984C15.8037 9.61687 15.8781 9.50627 15.9289 9.38441C15.9797 9.26255 16.0058 9.13185 16.0058 8.99984C16.0058 8.86782 15.9797 8.73712 15.9289 8.61526C15.8781 8.4934 15.8037 8.3828 15.71 8.28983ZM19.07 4.92984C18.1475 3.97473 17.0441 3.21291 15.824 2.68882C14.604 2.16473 13.2918 1.88887 11.964 1.87733C10.6362 1.86579 9.31942 2.11881 8.09046 2.62162C6.8615 3.12443 5.74498 3.86696 4.80605 4.80589C3.86712 5.74481 3.12459 6.86133 2.62178 8.09029C2.11897 9.31926 1.86596 10.6361 1.8775 11.9638C1.88903 13.2916 2.1649 14.6038 2.68899 15.8239C3.21308 17.0439 3.9749 18.1474 4.93 19.0698C5.85247 20.0249 6.95591 20.7868 8.17595 21.3109C9.39599 21.8349 10.7082 22.1108 12.036 22.1223C13.3638 22.1339 14.6806 21.8809 15.9095 21.3781C17.1385 20.8752 18.255 20.1327 19.194 19.1938C20.1329 18.2549 20.8754 17.1383 21.3782 15.9094C21.881 14.6804 22.134 13.3636 22.1225 12.0358C22.111 10.708 21.8351 9.39583 21.311 8.17579C20.7869 6.95575 20.0251 5.8523 19.07 4.92984ZM17.66 17.6598C16.352 18.9692 14.6305 19.7847 12.7888 19.9671C10.947 20.1496 9.09901 19.6879 7.55952 18.6606C6.02004 17.6333 4.88436 16.104 4.34597 14.3333C3.80759 12.5626 3.8998 10.66 4.60691 8.94962C5.31402 7.23926 6.59227 5.82698 8.22389 4.9534C9.85551 4.07981 11.7395 3.79897 13.555 4.15871C15.3705 4.51845 17.005 5.49653 18.1802 6.9263C19.3554 8.35607 19.9985 10.1491 20 11.9998C20.0036 13.0511 19.7986 14.0927 19.3969 15.0642C18.9953 16.0358 18.4049 16.918 17.66 17.6598Z" fill="#A9ADB3"/>
</svg>
