<svg width="44" height="44" viewBox="0 0 44 44" fill="none" xmlns="http://www.w3.org/2000/svg">
<path d="M38.5 7.33317H33V5.49984C33 5.01361 32.8068 4.54729 32.463 4.20347C32.1192 3.85966 31.6529 3.6665 31.1667 3.6665H12.8333C12.3471 3.6665 11.8808 3.85966 11.537 4.20347C11.1932 4.54729 11 5.01361 11 5.49984V7.33317H5.5C5.01377 7.33317 4.54745 7.52632 4.20364 7.87014C3.85982 8.21396 3.66667 8.68027 3.66667 9.1665V14.6665C3.66667 16.6114 4.43928 18.4767 5.81455 19.852C7.18982 21.2272 9.05508 21.9998 11 21.9998H13.8233C15.4816 23.8499 17.7174 25.0841 20.1667 25.5015V29.3332H18.3333C16.8746 29.3332 15.4757 29.9126 14.4442 30.9441C13.4128 31.9755 12.8333 33.3745 12.8333 34.8332V38.4998C12.8333 38.9861 13.0265 39.4524 13.3703 39.7962C13.7141 40.14 14.1804 40.3332 14.6667 40.3332H29.3333C29.8196 40.3332 30.2859 40.14 30.6297 39.7962C30.9735 39.4524 31.1667 38.9861 31.1667 38.4998V34.8332C31.1667 33.3745 30.5872 31.9755 29.5558 30.9441C28.5243 29.9126 27.1254 29.3332 25.6667 29.3332H23.8333V25.5015C26.2826 25.0841 28.5184 23.8499 30.1767 21.9998H33C34.9449 21.9998 36.8102 21.2272 38.1854 19.852C39.5607 18.4767 40.3333 16.6114 40.3333 14.6665V9.1665C40.3333 8.68027 40.1402 8.21396 39.7964 7.87014C39.4525 7.52632 38.9862 7.33317 38.5 7.33317V7.33317ZM11 18.3332C10.0275 18.3332 9.09491 17.9469 8.40728 17.2592C7.71964 16.5716 7.33333 15.639 7.33333 14.6665V10.9998H11V14.6665C11.004 15.9163 11.221 17.1563 11.6417 18.3332H11ZM25.6667 32.9998C26.1529 32.9998 26.6192 33.193 26.963 33.5368C27.3068 33.8806 27.5 34.3469 27.5 34.8332V36.6665H16.5V34.8332C16.5 34.3469 16.6932 33.8806 17.037 33.5368C17.3808 33.193 17.8471 32.9998 18.3333 32.9998H25.6667ZM29.3333 14.6665C29.3333 16.6114 28.5607 18.4767 27.1854 19.852C25.8102 21.2272 23.9449 21.9998 22 21.9998C20.0551 21.9998 18.1898 21.2272 16.8145 19.852C15.4393 18.4767 14.6667 16.6114 14.6667 14.6665V7.33317H29.3333V14.6665ZM36.6667 14.6665C36.6667 15.639 36.2804 16.5716 35.5927 17.2592C34.9051 17.9469 33.9725 18.3332 33 18.3332H32.3583C32.779 17.1563 32.996 15.9163 33 14.6665V10.9998H36.6667V14.6665Z" fill="white"/>
</svg>
